<?xml version="1.0" encoding="utf-8"?>
<!-- Generator: Adobe Illustrator 19.2.1, SVG Export Plug-In . SVG Version: 6.00 Build 0)  -->
<svg version="1.1" id="Layer_1" xmlns="http://www.w3.org/2000/svg" xmlns:xlink="http://www.w3.org/1999/xlink" x="0px" y="0px"
	 viewBox="0 0 264.5 155.5" style="enable-background:new 0 0 264.5 155.5;" xml:space="preserve">
<style type="text/css">
	.st0{font-family:'MyriadPro-Regular';}
	.st1{font-size:12px;}
	.st2{fill:none;stroke:#000000;stroke-miterlimit:10;}
	.st3{fill:none;stroke:#A7A9AC;stroke-miterlimit:10;}
</style>
<text transform="matrix(1 0 0 1 148.0547 19.8159)" class="st0 st1">Network</text>
<text transform="matrix(1 0 0 1 126.0459 61.4424)" class="st0 st1">Node</text>
<text transform="matrix(1 0 0 1 197.8154 61.4424)" class="st0 st1">Vector</text>
<text transform="matrix(1 0 0 1 131.7875 98.2852)" class="st0 st1">Info</text>
<text transform="matrix(1 0 0 1 181.5483 133.2126)" class="st0 st1">Transmission</text>
<text transform="matrix(1 0 0 1 75.328 142.782)" class="st0 st1">Transformation</text>
<text transform="matrix(1 0 0 1 12.6484 19.8159)" class="st0 st1">Participant</text>
<text transform="matrix(1 0 0 1 12.6482 86.3223)" class="st0 st1">Question</text>
<line class="st2" x1="39.4" y1="24.6" x2="34.7" y2="73.6"/>
<line class="st2" x1="167.7" y1="23.2" x2="140.9" y2="51.9"/>
<line class="st2" x1="174.4" y1="23.2" x2="209.3" y2="51.9"/>
<line class="st2" x1="139" y1="64.3" x2="139.4" y2="88.2"/>
<line class="st2" x1="214.6" y1="66.2" x2="211.7" y2="124.1"/>
<line class="st2" x1="145.2" y1="101.6" x2="197.8" y2="123.6"/>
<line class="st2" x1="137.1" y1="100.7" x2="111.6" y2="133.2"/>
<line class="st3" x1="69.6" y1="17.4" x2="121.7" y2="53.3"/>
<line class="st2" x1="34.7" y1="73.6" x2="38.5" y2="70"/>
<line class="st2" x1="30.5" y1="69.7" x2="34.7" y2="73.6"/>
<line class="st2" x1="111.6" y1="133.2" x2="111.6" y2="128.3"/>
<line class="st2" x1="115.8" y1="133.2" x2="111.6" y2="133.2"/>
<line class="st2" x1="197.8" y1="123.6" x2="193.8" y2="125.2"/>
<line class="st2" x1="195.8" y1="119.2" x2="197.8" y2="123.6"/>
<line class="st2" x1="208.3" y1="121.4" x2="211.7" y2="124.1"/>
<line class="st2" x1="215.3" y1="121.4" x2="211.7" y2="124.1"/>
<line class="st2" x1="139.4" y1="88.2" x2="142.8" y2="84.5"/>
<line class="st2" x1="135.2" y1="85" x2="139.4" y2="88.2"/>
<line class="st2" x1="141.1" y1="47.2" x2="140.9" y2="51.9"/>
<line class="st2" x1="144.8" y1="51.5" x2="140.9" y2="51.9"/>
<line class="st2" x1="209.3" y1="51.9" x2="209.2" y2="48"/>
<line class="st2" x1="205.9" y1="51.9" x2="209.3" y2="51.9"/>
<line class="st3" x1="121.7" y1="53.3" x2="121.3" y2="49.1"/>
<line class="st3" x1="117.9" y1="54.1" x2="121.7" y2="53.3"/>
</svg>
